# xmcd
#
# Track frame offsets:
#	150
#	17264
#	30318
#	43587
#	58863
#	72300
#	85161
#	94659
#	104781
#	116943
#	128760
#	149834
#	164148
#	176465
#	188415
#	202390
#	215444
#	242389
#	264050
#	284698
#	296085
#	305203
#	321681
#
# Disc length: 4501 seconds
#
# Revision: 1
# Processed by: cddbd v1.5PL3 Copyright (c) Steve Scherf et al.
# Submitted via: EasyCDDAExtractor 6.2.0.3
#
DISCID=6b119317
DTITLE=Bill Chase - Chase\\Ennea
DYEAR=1900
DGENRE=Country
TTITLE0=Open Up Wide
TTITLE1=Livin' In Heat
TTITLE2=Hello Groceries
TTITLE3=Handbags And Gladrags
TTITLE4=Get It On
TTITLE5=Boys And Girls Together
TTITLE6=Ivitation To A River\\Two Minds Meet
TTITLE7=Ivitation To A River\\Stay
TTITLE8=Ivitation To A River\\Paint It Sad
TTITLE9=Ivitation To A River\\Reflections
TTITLE10=Ivitation To A River\\River
TTITLE11=Ennea\\Swanee River
TTITLE12=Ennea\\So Many People
TTITLE13=Ennea\\Night
TTITLE14=Ennea\\It Won't Be Long
TTITLE15=Ennea\\I Can Feel It
TTITLE16=Ennea\\Woman Of The Dark
TTITLE17=Ennea\\Cronus(Saturn)
TTITLE18=Ennea\\Zeus(Jupiter)
TTITLE19=Ennea\\Poseidon(Neptune)
TTITLE20=Ennea\\Aphrodite Part I(Venus)
TTITLE21=Ennea\\Aphrodite Part II(Venus)
TTITLE22=Ennea\\Hades(Pluto)
EXTD=
EXTT0=
EXTT1=
EXTT2=
EXTT3=
EXTT4=
EXTT5=
EXTT6=
EXTT7=
EXTT8=
EXTT9=
EXTT10=
EXTT11=
EXTT12=
EXTT13=
EXTT14=
EXTT15=
EXTT16=
EXTT17=
EXTT18=
EXTT19=
EXTT20=
EXTT21=
EXTT22=
PLAYORDER=
